<svg width="242" height="200" viewBox="0 0 242 200" xmlns="http://www.w3.org/2000/svg">
  <g fill="none" fill-rule="evenodd">
    <path d="M60.667 8.667v165.333h120V8.667H60.667zM43.333 0h154.667c4.867 0 8.667 3.8 8.667 8.667v182.666c0 4.867-3.8 8.667-8.667 8.667H43.333c-4.867 0-8.666-3.8-8.666-8.667V8.667C34.667 3.8 38.467 0 43.333 0z" fill="#DFE3FA" opacity=".5"/>
    <path d="M29 32h184v136H29z" fill="#F8F8FB"/>
    <g transform="translate(29 32)">
      <path fill="#DFE3FA" d="M0 0h184v136H0z"/>
      <path d="M0 0h184v136H0V0zm13.333 13.333v109.334h157.334V13.333H13.333z" fill="#FFF"/>
      <path d="M42 42.667h100v9.333H42V42.667zm0 26.666h100v9.334H42V69.333zm0 26.667h58.667v9.333H42V96z" fill="#DFE3FA"/>
    </g>
    <path d="M202.667 130.667c12.666 0 23.733-6.734 29.6-16.8-5.867-10.134-16.934-16.8-29.6-16.8-12.667 0-23.734 6.666-29.6 16.8 5.866 10.066 16.933 16.8 29.6 16.8zm0-26.667c5.4 0 9.866 4.467 9.866 9.867 0 5.4-4.466 9.866-9.866 9.866-5.4 0-9.867-4.466-9.867-9.866 0-5.4 4.467-9.867 9.867-9.867z" fill="#000" opacity=".1"/>
    <path fill="#7C5DFA" d="M205.333 126.667l17.334 20-34.667-8z"/>
    <path fill="#9277FF" d="M205.333 126.667l17.334 20-17.334-12z"/>
    <path fill="#DFE3FA" d="M0 99.333h26.667v58.667H0z"/>
    <path fill="#9277FF" d="M10.667 158h5.333v42H10.667z"/>
    <path fill="#7C5DFA" d="M26.667 158h-26.667l13.334 42z"/>
    <path d="M196 65.333c12.667 0 23.733-6.733 29.6-16.8-5.867-10.133-16.933-16.8-29.6-16.8-12.667 0-23.733 6.667-29.6 16.8 5.867 10.067 16.933 16.8 29.6 16.8zm0-26.666c5.4 0 9.867 4.466 9.867 9.866 0 5.4-4.467 9.867-9.867 9.867-5.4 0-9.867-4.467-9.867-9.867 0-5.4 4.467-9.866 9.867-9.866z" fill="#000" opacity=".1"/>
    <path fill="#7C5DFA" d="M198.667 61.333l17.333 20-34.667-8z"/>
    <path fill="#9277FF" d="M198.667 61.333l17.333 20-17.333-12z"/>
  </g>
</svg>
